HIERARCHY
ROOT Hips
{
	OFFSET	0.000000	0.000000	0.000000
	CHANNELS 6 Xposition Yposition Zposition Zrotation Xrotation Yrotation
	JOINT LeftHip
	{
		OFFSET	4.740440	-3.195970	-0.322709
		CHANNELS 3 Zrotation Xrotation Yrotation
		JOINT LeftKnee
		{
			OFFSET	-1.605680	-15.592300	1.005510
			CHANNELS 3 Zrotation Xrotation Yrotation
			JOINT LeftAnkle
			{
				OFFSET	-0.632401	-16.421000	-1.413730
				CHANNELS 3 Zrotation Xrotation Yrotation
				End Site
				{
					OFFSET	0.008423	-2.933000	-1.684880
				}
			}
		}
	}
	JOINT RightHip
	{
		OFFSET	-4.740440	-3.195970	-0.322709
		CHANNELS 3 Zrotation Xrotation Yrotation
		JOINT RightKnee
		{
			OFFSET	1.605680	-15.592300	1.005510
			CHANNELS 3 Zrotation Xrotation Yrotation
			JOINT RightAnkle
			{
				OFFSET	0.632401	-16.421000	-1.413730
				CHANNELS 3 Zrotation Xrotation Yrotation
				End Site
				{
					OFFSET	-0.008423	-2.933000	-1.684880
				}
			}
		}
	}
	JOINT Chest
	{
		OFFSET	0.000000	3.468200	0.078401
		CHANNELS 3 Zrotation Xrotation Yrotation
		JOINT LeftCollar
		{
			OFFSET	3.857650	15.070700	-0.011583
			CHANNELS 3 Zrotation Xrotation Yrotation
			JOINT LeftShoulder
			{
				OFFSET	3.979720	-1.940530	-0.165223
				CHANNELS 3 Zrotation Xrotation Yrotation
				JOINT LeftElbow
				{
					OFFSET	0.615844	-10.986600	-0.673886
					CHANNELS 3 Zrotation Xrotation Yrotation
					JOINT LeftWrist
					{
						OFFSET	0.826843	-10.854500	1.034220
						CHANNELS 3 Zrotation Xrotation Yrotation
						End Site
						{
							OFFSET	-1.679080	-8.456540	0.936217
						}
					}
				}
			}
		}
		JOINT RightCollar
		{
			OFFSET	-3.857650	15.070700	-0.011583
			CHANNELS 3 Zrotation Xrotation Yrotation
			JOINT RightShoulder
			{
				OFFSET	-3.979720	-1.940530	-0.165223
				CHANNELS 3 Zrotation Xrotation Yrotation
				JOINT RightElbow
				{
					OFFSET	-0.615845	-10.986600	-0.673886
					CHANNELS 3 Zrotation Xrotation Yrotation
					JOINT RightWrist
					{
						OFFSET	-0.826843	-10.854500	1.034220
						CHANNELS 3 Zrotation Xrotation Yrotation
						End Site
						{
							OFFSET	1.679080	-8.456540	0.936217
						}
					}
				}
			}
		}
		JOINT Neck
		{
			OFFSET	0.000000	15.101400	0.055730
			CHANNELS 3 Zrotation Xrotation Yrotation
			JOINT Head
			{
				OFFSET	0.000000	4.185120	1.488260
				CHANNELS 3 Zrotation Xrotation Yrotation
				End Site
				{
					OFFSET	0.000000	7.773420	-0.106016
				}
			}
		}
	}
}
MOTION
Frames:    7
Frame Time: 0.016667
116.025383	37.558037	125.821526	-9.049293	-8.033083	-83.859802	-4.603387	7.500306	-11.294098	-6.553110	2.162453	9.238228	5.191353	-3.512871	0.246690	-17.025246	-3.545391	3.326504	-2.731237	20.696171	9.079769	10.779029	-7.440263	-11.812081	-6.976129	9.265193	-0.191015	-3.940814	2.955961	-8.509526	6.567572	-2.975724	-4.323668	-8.471147	-12.024564	-10.824102	14.386588	5.615036	-29.643711	0.229188	0.676471	-1.430306	-3.495845	-6.289932	8.843634	-2.218597	-4.183800	14.756795	-15.570182	-3.503208	16.464188	-0.033115	8.408501	0.224716	-0.762323	0.029794	-0.210868	
116.024147	37.557625	125.822388	-9.042917	-8.033519	-83.859215	-4.603289	7.496491	-11.287088	-6.554348	2.162134	9.237472	5.191554	-3.515023	0.240017	-17.031294	-3.555331	3.341970	-2.718372	20.705746	9.067656	10.776238	-7.446311	-11.817751	-6.994117	9.276447	-0.188894	-3.934366	2.953979	-8.507652	6.577603	-2.975770	-4.326385	-8.475974	-12.022065	-10.826528	14.393522	5.615601	-29.638220	0.235591	0.672155	-1.435751	-3.483926	-6.290411	8.848482	-2.224727	-4.186128	14.756945	-15.572382	-3.503675	16.460463	-0.016347	8.391084	0.224861	-0.762323	0.029794	-0.210868	
116.018921	37.556576	125.823280	-9.020110	-8.029523	-83.857635	-4.598871	7.479230	-11.269916	-6.557679	2.162056	9.238244	5.192125	-3.521025	0.221390	-17.034269	-3.581073	3.351572	-2.704439	20.724503	9.069922	10.768107	-7.463862	-11.834458	-7.041252	9.304064	-0.182719	-3.929211	2.964326	-8.490981	6.621680	-2.990866	-4.343081	-8.514223	-12.021143	-10.837785	14.416389	5.624343	-29.623522	0.253447	0.660333	-1.451757	-3.448954	-6.293792	8.862803	-2.244211	-4.185661	14.757582	-15.579881	-3.505880	16.447584	0.013953	8.366735	0.237817	-0.744577	0.003837	-0.221035	
116.017502	37.555862	125.824211	-9.011890	-8.024961	-83.855370	-4.594158	7.472398	-11.266708	-6.558712	2.162148	9.239025	5.192309	-3.522929	0.215470	-17.034424	-3.591866	3.360619	-2.694541	20.732897	9.061927	10.765409	-7.469738	-11.839575	-7.053612	9.312613	-0.182428	-3.927184	2.970438	-8.491488	6.636908	-2.998079	-4.342284	-8.513465	-12.032922	-10.838545	14.408293	5.640926	-29.620770	0.260132	0.655489	-1.456763	-3.437361	-6.281796	8.867089	-2.258337	-4.182911	14.758126	-15.585213	-3.508543	16.437918	0.019075	8.384927	0.247065	-0.727135	-0.031344	-0.234973	
116.015068	37.554699	125.825493	-8.987859	-8.011272	-83.848557	-4.580127	7.452117	-11.258333	-6.561001	2.161569	9.236907	5.192646	-3.526864	0.203296	-17.025726	-3.616231	3.355980	-2.689125	20.739403	9.066528	10.762006	-7.476528	-11.850160	-7.092139	9.340409	-0.181323	-3.887267	2.930081	-8.484153	6.641447	-2.970015	-4.356395	-8.503658	-12.071788	-10.839209	14.361501	5.666798	-29.613171	0.280197	0.641280	-1.472451	-3.403357	-6.293298	8.881227	-2.273244	-4.181811	14.758719	-15.589946	-3.513922	16.427999	0.055451	8.376375	0.258848	-0.695111	-0.113198	-0.281066	
116.013176	37.554535	125.825325	-8.979871	-8.010653	-83.848373	-4.580257	7.444485	-11.257447	-6.561046	2.161276	9.236256	5.192646	-3.526864	0.203296	-17.026051	-3.624082	3.354541	-2.687894	20.744165	9.066572	10.760166	-7.481060	-11.849789	-7.094423	9.334969	-0.181223	-3.896765	2.939229	-8.469997	6.651852	-2.969681	-4.370405	-8.500732	-12.083397	-10.839387	14.345045	5.675315	-29.610514	0.271825	0.651879	-1.477974	-3.391396	-6.293667	8.886095	-2.289249	-4.155896	14.759908	-15.590769	-3.541763	16.414476	0.030679	8.387808	0.275665	-0.662037	-0.142440	-0.308070	
116.011398	37.554817	125.825294	-8.956634	-8.010662	-83.848915	-4.582983	7.421376	-11.255492	-6.561046	2.161276	9.236256	5.192646	-3.526864	0.203296	-17.028721	-3.647067	3.351448	-2.687701	20.744926	9.066649	10.759867	-7.481796	-11.849796	-7.108337	9.323133	-0.178455	-3.919685	2.962650	-8.428901	6.682876	-2.970323	-4.411568	-8.536899	-12.067420	-10.850160	14.352506	5.659444	-29.592667	0.239157	0.676349	-1.480475	-3.344675	-6.292020	8.886499	-2.306731	-4.162813	14.760324	-15.598194	-3.539125	16.403791	-0.119643	8.395363	0.325787	-0.487563	-0.193709	-0.365999	
